<svg width="30" height="30" viewBox="0 0 30 30" fill="none" xmlns="http://www.w3.org/2000/svg">
<path d="M21.7666 16.2227C22.4414 16.2227 22.988 16.7695 22.9883 17.4443V20.7783C22.9882 21.4533 22.4416 22 21.7666 22H8.43262C7.75768 21.9999 7.21098 21.4533 7.21094 20.7783V17.4443C7.21119 16.7696 7.7578 16.2227 8.43262 16.2227H21.7666ZM8.54297 20.668H21.6562V17.5557H8.54297V20.668ZM21.7666 10.667C22.4415 10.667 22.9881 11.2138 22.9883 11.8887V14.1113C22.9883 14.7863 22.4416 15.333 21.7666 15.333H8.43262C7.75765 15.3329 7.21094 14.7863 7.21094 14.1113V11.8887C7.21113 11.2138 7.75777 10.6671 8.43262 10.667H21.7666ZM8.54297 14.001H21.6562V12H8.54297V14.001ZM21.7666 8C22.0734 8.00006 22.3223 8.24886 22.3223 8.55566C22.3222 8.86242 22.0734 9.11127 21.7666 9.11133H8.43262C8.12588 9.11126 7.877 8.86241 7.87695 8.55566C7.87695 8.24887 8.12584 8.00007 8.43262 8H21.7666Z" fill="#B6B6B6"/>
</svg>
