<svg width="30" height="30" viewBox="0 0 30 30" fill="none" xmlns="http://www.w3.org/2000/svg">
<path d="M15.9766 17.7676C15.9764 18.0371 15.7578 18.2558 15.4883 18.2559C15.2188 18.2557 15.0002 18.0371 15 17.7676L15 12.2324C15.0002 11.9629 15.2188 11.7443 15.4883 11.7441C15.7578 11.7442 15.9764 11.9629 15.9766 12.2324L15.9766 17.7676ZM22 21.5117C22 21.7815 21.7815 22 21.5117 22L20.6982 22C19.5294 22 18.582 21.0526 18.582 19.8838L18.582 10.1162C18.582 8.94737 19.5294 8 20.6982 8L21.5117 8C21.7815 8 22 8.21855 22 8.48828C21.9999 8.75792 21.7814 8.97656 21.5117 8.97656L20.6982 8.97656C20.0689 8.97656 19.5576 9.48683 19.5576 10.1162L19.5576 19.8838C19.5576 20.5132 20.0689 21.0234 20.6982 21.0234L21.5117 21.0234C21.7814 21.0234 21.9999 21.2421 22 21.5117Z" fill="#B6B6B6"/>
</svg>
